<?xml version="1.0" encoding="UTF-8"?> <svg xmlns="http://www.w3.org/2000/svg" width="102" height="53" viewBox="0 0 102 53" fill="none"> <path d="M40.9248 36.0994C44.3648 36.0994 46.6848 34.7794 46.6848 30.8594V16.6194H36.4048V12.8594H51.3248V30.5394C51.3248 36.6194 47.4448 40.0194 41.0848 40.0194C39.0048 40.0194 35.9648 39.6994 33.9648 39.2994V35.2594C36.5248 35.8194 39.2848 36.0994 40.9248 36.0994Z" fill="#212021"></path> <path d="M0.0800781 12.8594H4.88008L15.0401 29.5794C15.2401 29.8994 15.6401 29.8994 15.8001 29.5794L25.9601 12.8594H30.7201V39.6594H26.0801V20.7394L18.6401 32.7394C17.7601 34.1794 16.8001 34.7794 15.3601 34.7794C13.9201 34.7794 12.9601 34.1794 12.0801 32.7394L4.68008 20.7394V39.6594H0.0800781V12.8594Z" fill="#212021"></path> <path d="M58.667 8.33594H56.667V45.3359H58.667V8.33594Z" fill="#212021"></path> <path d="M95.5508 16.3291H96.547V17.3502H96.5719C97.0118 16.5699 97.7092 16.1797 98.6638 16.1797C99.0872 16.1797 99.44 16.2378 99.7223 16.354C100.005 16.4702 100.233 16.6321 100.407 16.8397C100.581 17.0472 100.702 17.2962 100.768 17.5868C100.843 17.869 100.88 18.1845 100.88 18.5331V22.7669H99.8219V18.4086C99.8219 18.0102 99.7057 17.6947 99.4732 17.4623C99.2408 17.2298 98.9212 17.1136 98.5144 17.1136C98.1906 17.1136 97.9084 17.1634 97.6677 17.263C97.4352 17.3626 97.2401 17.5038 97.0824 17.6864C96.9247 17.869 96.8043 18.0849 96.7213 18.3339C96.6466 18.5747 96.6092 18.8403 96.6092 19.1309V22.7669H95.5508V16.3291Z" fill="#A3A2A3"></path> <path d="M93.9551 22.219C93.9551 23.2733 93.7143 24.0619 93.2328 24.5849C92.7514 25.1079 91.9959 25.3694 90.9665 25.3694C90.6677 25.3694 90.3605 25.3362 90.0451 25.2698C89.7379 25.2034 89.4557 25.0954 89.1983 24.946C88.9493 24.7966 88.7418 24.6015 88.5757 24.3608C88.4097 24.12 88.3184 23.8253 88.3018 23.4767H89.3602C89.3685 23.6676 89.4266 23.8295 89.5345 23.9623C89.6508 24.0951 89.7877 24.203 89.9455 24.286C90.1115 24.3691 90.29 24.4272 90.4809 24.4604C90.6718 24.5019 90.8545 24.5226 91.0288 24.5226C91.3775 24.5226 91.6722 24.4604 91.9129 24.3359C92.1536 24.2196 92.3529 24.0536 92.5106 23.8378C92.6683 23.6302 92.7804 23.377 92.8468 23.0782C92.9215 22.7793 92.9589 22.4514 92.9589 22.0945V21.6711H92.934C92.7514 22.0696 92.4733 22.3643 92.0997 22.5552C91.7344 22.7378 91.3443 22.8291 90.9292 22.8291C90.4477 22.8291 90.0285 22.742 89.6715 22.5676C89.3146 22.3933 89.0157 22.1609 88.775 21.8703C88.5342 21.5715 88.3516 21.227 88.2271 20.8368C88.1108 20.4383 88.0527 20.0191 88.0527 19.5791C88.0527 19.1973 88.1025 18.8071 88.2022 18.4086C88.3018 18.0019 88.4678 17.6366 88.7002 17.3128C88.9327 16.9808 89.2398 16.711 89.6217 16.5034C90.0036 16.2876 90.4726 16.1797 91.0288 16.1797C91.4356 16.1797 91.8091 16.271 92.1495 16.4536C92.4899 16.628 92.7555 16.8936 92.9464 17.2506H92.9589V16.3291H93.9551V22.219ZM90.9914 21.9077C91.3401 21.9077 91.6348 21.8371 91.8755 21.696C92.1246 21.5466 92.3238 21.3556 92.4733 21.1232C92.6227 20.8825 92.7306 20.6127 92.797 20.3138C92.8717 20.015 92.9091 19.7161 92.9091 19.4173C92.9091 19.135 92.8759 18.8569 92.8095 18.583C92.743 18.309 92.6351 18.0641 92.4857 17.8483C92.3446 17.6241 92.1578 17.4457 91.9254 17.3128C91.6929 17.18 91.4107 17.1136 91.0786 17.1136C90.7383 17.1136 90.4477 17.18 90.207 17.3128C89.9662 17.4374 89.767 17.6075 89.6093 17.8234C89.4598 18.0392 89.3478 18.2883 89.273 18.5705C89.2066 18.8528 89.1734 19.1475 89.1734 19.4546C89.1734 19.7452 89.2025 20.0357 89.2606 20.3263C89.3187 20.6168 89.4183 20.8825 89.5594 21.1232C89.7006 21.3556 89.8874 21.5466 90.1198 21.696C90.3522 21.8371 90.6428 21.9077 90.9914 21.9077Z" fill="#A3A2A3"></path> <path d="M86.7606 15.17H85.7021V13.875H86.7606V15.17ZM85.7021 16.3281H86.7606V22.7658H85.7021V16.3281Z" fill="#A3A2A3"></path> <path d="M80.0614 20.7372C80.0697 20.9696 80.1236 21.1689 80.2232 21.3349C80.3229 21.4926 80.4515 21.6213 80.6093 21.7209C80.7753 21.8122 80.9579 21.8786 81.1572 21.9201C81.3647 21.9616 81.5764 21.9824 81.7922 21.9824C81.9582 21.9824 82.1326 21.9699 82.3152 21.945C82.4978 21.9201 82.6639 21.8745 82.8133 21.8081C82.971 21.7417 83.0997 21.6462 83.1993 21.5217C83.2989 21.3888 83.3487 21.2228 83.3487 21.0236C83.3487 20.7496 83.245 20.5421 83.0374 20.401C82.8299 20.2598 82.5684 20.1478 82.2529 20.0648C81.9458 19.9734 81.6096 19.8946 81.2443 19.8282C80.8791 19.7535 80.5387 19.6538 80.2232 19.5293C79.9161 19.3965 79.6587 19.2139 79.4512 18.9814C79.2437 18.749 79.1399 18.4252 79.1399 18.0102C79.1399 17.6864 79.2105 17.4083 79.3516 17.1759C79.501 16.9434 79.6878 16.7566 79.9119 16.6155C80.1444 16.4661 80.4017 16.3582 80.684 16.2918C80.9745 16.217 81.2609 16.1797 81.5432 16.1797C81.9084 16.1797 82.2446 16.2129 82.5518 16.2793C82.859 16.3374 83.1287 16.4453 83.3612 16.6031C83.6019 16.7525 83.7929 16.96 83.934 17.2257C84.0751 17.483 84.1581 17.8068 84.183 18.1969H83.1246C83.108 17.9894 83.054 17.8192 82.9627 17.6864C82.8714 17.5453 82.7552 17.4332 82.6141 17.3502C82.4729 17.2672 82.3152 17.2091 82.1409 17.1759C81.9748 17.1344 81.8047 17.1136 81.6303 17.1136C81.4726 17.1136 81.3107 17.1261 81.1447 17.151C80.987 17.1759 80.8417 17.2215 80.7089 17.2879C80.5761 17.346 80.4681 17.4291 80.3851 17.537C80.3021 17.6366 80.2606 17.7694 80.2606 17.9354C80.2606 18.1181 80.3229 18.2717 80.4474 18.3962C80.5802 18.5124 80.7462 18.612 80.9455 18.695C81.1447 18.7697 81.3688 18.8361 81.6179 18.8943C81.8669 18.9441 82.116 18.998 82.365 19.0561C82.6307 19.1142 82.888 19.1848 83.137 19.2678C83.3944 19.3508 83.6185 19.4629 83.8095 19.604C84.0087 19.7369 84.1664 19.907 84.2826 20.1146C84.4072 20.3221 84.4694 20.5795 84.4694 20.8866C84.4694 21.2768 84.3864 21.6005 84.2204 21.8579C84.0627 22.1152 83.851 22.3228 83.5853 22.4805C83.328 22.6382 83.0333 22.7461 82.7012 22.8042C82.3775 22.8707 82.0537 22.9039 81.73 22.9039C81.373 22.9039 81.0326 22.8665 80.7089 22.7918C80.3851 22.7171 80.0987 22.5967 79.8497 22.4307C79.6006 22.2563 79.4014 22.0322 79.252 21.7583C79.1025 21.476 79.0195 21.1356 79.0029 20.7372H80.0614Z" fill="#A3A2A3"></path> <path d="M77.1969 18.9316C77.1803 18.6826 77.1222 18.446 77.0226 18.2218C76.9313 17.9977 76.8026 17.8068 76.6366 17.649C76.4788 17.483 76.2879 17.3543 76.0638 17.263C75.8479 17.1634 75.6072 17.1136 75.3415 17.1136C75.0676 17.1136 74.8186 17.1634 74.5944 17.263C74.3786 17.3543 74.1918 17.483 74.0341 17.649C73.8763 17.8151 73.7518 18.0102 73.6605 18.2343C73.5692 18.4501 73.5152 18.6826 73.4986 18.9316H77.1969ZM78.218 20.7247C78.0769 21.447 77.7656 21.9907 77.2841 22.356C76.8026 22.7212 76.1966 22.9039 75.4661 22.9039C74.9514 22.9039 74.5031 22.8208 74.1212 22.6548C73.7477 22.4888 73.4322 22.2563 73.1749 21.9575C72.9175 21.6586 72.7224 21.3017 72.5896 20.8866C72.4651 20.4715 72.3945 20.0191 72.3779 19.5293C72.3779 19.0395 72.4526 18.5913 72.6021 18.1845C72.7515 17.7777 72.959 17.4249 73.2247 17.1261C73.4986 16.8272 73.8182 16.5948 74.1835 16.4287C74.5571 16.2627 74.9638 16.1797 75.4038 16.1797C75.9766 16.1797 76.4498 16.3001 76.8234 16.5408C77.2052 16.7732 77.5082 17.0721 77.7324 17.4374C77.9648 17.8026 78.1225 18.2011 78.2055 18.6328C78.2969 19.0644 78.3342 19.4754 78.3176 19.8655H73.4986C73.4903 20.1478 73.5235 20.4176 73.5982 20.6749C73.673 20.924 73.7933 21.1481 73.9594 21.3473C74.1254 21.5383 74.3371 21.6918 74.5944 21.8081C74.8518 21.9243 75.1548 21.9824 75.5034 21.9824C75.9517 21.9824 76.317 21.8786 76.5992 21.6711C76.8898 21.4636 77.0807 21.1481 77.172 20.7247H78.218Z" fill="#A3A2A3"></path> <path d="M65.3158 21.7697H67.2832C67.416 21.7697 67.5821 21.7614 67.7813 21.7448C67.9805 21.7199 68.1922 21.6701 68.4164 21.5953C68.6405 21.5123 68.8605 21.3961 69.0763 21.2467C69.3005 21.0973 69.4997 20.8939 69.674 20.6365C69.8484 20.3792 69.9895 20.0596 70.0974 19.6777C70.2136 19.2875 70.2717 18.8185 70.2717 18.2706C70.2717 17.7393 70.2178 17.2661 70.1099 16.8511C70.0102 16.4277 69.8401 16.0707 69.5993 15.7802C69.3669 15.4813 69.0639 15.2572 68.6903 15.1078C68.3167 14.95 67.856 14.8712 67.3081 14.8712H65.3158V21.7697ZM64.1328 13.875H67.1836C68.5533 13.875 69.6076 14.2237 70.3464 14.921C71.0853 15.6183 71.4547 16.6809 71.4547 18.1087C71.4547 18.8559 71.3717 19.52 71.2056 20.1011C71.0396 20.6739 70.7823 21.1595 70.4336 21.558C70.0849 21.9482 69.6408 22.247 69.1012 22.4545C68.5616 22.6621 67.9224 22.7658 67.1836 22.7658H64.1328V13.875Z" fill="#A3A2A3"></path> <path d="M93.7955 34.4917C93.7955 34.8819 93.8453 35.2306 93.9449 35.5377C94.0528 35.8366 94.1981 36.0898 94.3808 36.2973C94.5634 36.4965 94.7751 36.6501 95.0158 36.758C95.2649 36.8659 95.5264 36.9199 95.8003 36.9199C96.0742 36.9199 96.3316 36.8659 96.5723 36.758C96.8214 36.6501 97.0372 36.4965 97.2198 36.2973C97.4025 36.0898 97.5436 35.8366 97.6432 35.5377C97.7511 35.2306 97.8051 34.8819 97.8051 34.4917C97.8051 34.1016 97.7511 33.757 97.6432 33.4582C97.5436 33.151 97.4025 32.8937 97.2198 32.6862C97.0372 32.4786 96.8214 32.3209 96.5723 32.213C96.3316 32.1051 96.0742 32.0511 95.8003 32.0511C95.5264 32.0511 95.2649 32.1051 95.0158 32.213C94.7751 32.3209 94.5634 32.4786 94.3808 32.6862C94.1981 32.8937 94.0528 33.151 93.9449 33.4582C93.8453 33.757 93.7955 34.1016 93.7955 34.4917ZM92.6748 34.4917C92.6748 34.0185 92.7412 33.5786 92.874 33.1718C93.0069 32.7567 93.2061 32.3998 93.4717 32.1009C93.7374 31.7938 94.0653 31.553 94.4555 31.3787C94.8456 31.2044 95.2939 31.1172 95.8003 31.1172C96.315 31.1172 96.7633 31.2044 97.1451 31.3787C97.5353 31.553 97.8632 31.7938 98.1289 32.1009C98.3945 32.3998 98.5937 32.7567 98.7266 33.1718C98.8594 33.5786 98.9258 34.0185 98.9258 34.4917C98.9258 34.9649 98.8594 35.4049 98.7266 35.8117C98.5937 36.2184 98.3945 36.5754 98.1289 36.8825C97.8632 37.1814 97.5353 37.418 97.1451 37.5923C96.7633 37.7583 96.315 37.8414 95.8003 37.8414C95.2939 37.8414 94.8456 37.7583 94.4555 37.5923C94.0653 37.418 93.7374 37.1814 93.4717 36.8825C93.2061 36.5754 93.0069 36.2184 92.874 35.8117C92.7412 35.4049 92.6748 34.9649 92.6748 34.4917Z" fill="#A3A2A3"></path> <path d="M91.3817 30.1075H90.3232V28.8125H91.3817V30.1075ZM90.3232 31.2656H91.3817V37.7033H90.3232V31.2656Z" fill="#A3A2A3"></path> <path d="M83.6519 34.5405C83.6519 34.8393 83.6893 35.1341 83.764 35.4246C83.847 35.7069 83.9674 35.96 84.1251 36.1842C84.2912 36.4083 84.4987 36.5868 84.7477 36.7196C85.0051 36.8524 85.3039 36.9189 85.6443 36.9189C86.0013 36.9189 86.3043 36.8483 86.5533 36.7072C86.8023 36.566 87.0057 36.3834 87.1635 36.1593C87.3212 35.9268 87.4333 35.6653 87.4997 35.3748C87.5744 35.0842 87.6117 34.7895 87.6117 34.4907C87.6117 34.1752 87.5744 33.8722 87.4997 33.5817C87.425 33.2828 87.3046 33.0213 87.1386 32.7972C86.9808 32.5731 86.7733 32.3946 86.5159 32.2618C86.2586 32.1206 85.9473 32.0501 85.582 32.0501C85.2251 32.0501 84.9221 32.1206 84.673 32.2618C84.424 32.4029 84.2247 32.5897 84.0753 32.8221C83.9259 33.0545 83.818 33.3202 83.7516 33.619C83.6852 33.9179 83.6519 34.225 83.6519 34.5405ZM88.6328 37.7033H87.5744V36.8317H87.5495C87.3751 37.1887 87.1012 37.446 86.7276 37.6037C86.3541 37.7615 85.9431 37.8403 85.4949 37.8403C84.9968 37.8403 84.561 37.749 84.1874 37.5664C83.8221 37.3837 83.515 37.1388 83.2659 36.8317C83.0252 36.5245 82.8426 36.1676 82.718 35.7608C82.5935 35.354 82.5312 34.9224 82.5312 34.4658C82.5312 34.0092 82.5894 33.5775 82.7056 33.1708C82.8301 32.764 83.0127 32.4112 83.2535 32.1123C83.5025 31.8052 83.8097 31.5644 84.1749 31.3901C84.5485 31.2075 84.9802 31.1162 85.47 31.1162C85.636 31.1162 85.8145 31.1328 86.0054 31.166C86.1963 31.1992 86.3873 31.2573 86.5782 31.3403C86.7691 31.415 86.9476 31.5188 87.1136 31.6516C87.288 31.7761 87.4333 31.9338 87.5495 32.1248H87.5744V28.8125H88.6328V37.7033Z" fill="#A3A2A3"></path> <path d="M81.2905 37.7034H80.2943V36.6823H80.2694C80.0452 37.0808 79.7588 37.3755 79.4102 37.5664C79.0615 37.7491 78.6506 37.8404 78.1774 37.8404C77.754 37.8404 77.4012 37.7864 77.119 37.6785C76.8367 37.5623 76.6085 37.4004 76.4341 37.1929C76.2598 36.9853 76.1353 36.7404 76.0606 36.4582C75.9941 36.1676 75.9609 35.848 75.9609 35.4994V31.2656H77.0194V35.6239C77.0194 36.0224 77.1356 36.3378 77.368 36.5702C77.6005 36.8027 77.9201 36.9189 78.3268 36.9189C78.6506 36.9189 78.9287 36.8691 79.1611 36.7695C79.4019 36.6699 79.6011 36.5287 79.7588 36.3461C79.9166 36.1635 80.0328 35.9518 80.1075 35.711C80.1905 35.462 80.232 35.1922 80.232 34.9017V31.2656H81.2905V37.7034Z" fill="#A3A2A3"></path> <path d="M73.5029 31.2738H74.7854V32.2077H73.5029V36.2049C73.5029 36.3294 73.5112 36.429 73.5278 36.5037C73.5527 36.5785 73.5942 36.6366 73.6523 36.6781C73.7104 36.7196 73.7893 36.7486 73.8889 36.7652C73.9968 36.7735 74.1338 36.7777 74.2998 36.7777H74.7854V37.7116H73.976C73.7021 37.7116 73.4655 37.695 73.2663 37.6618C73.0753 37.6203 72.9176 37.5497 72.7931 37.4501C72.6769 37.3505 72.5897 37.2094 72.5316 37.0267C72.4735 36.8441 72.4444 36.6034 72.4444 36.3045V32.2077H71.3486V31.2738H72.4444V29.3438H73.5029V31.2738Z" fill="#A3A2A3"></path> <path d="M69.2763 31.4158C69.2099 30.7765 68.9775 30.3158 68.579 30.0336C68.1888 29.743 67.6866 29.5977 67.0723 29.5977C66.8233 29.5977 66.5784 29.6226 66.3376 29.6724C66.0969 29.7223 65.881 29.8053 65.6901 29.9215C65.5075 30.0377 65.358 30.1954 65.2418 30.3947C65.1339 30.5856 65.08 30.8263 65.08 31.1169C65.08 31.3908 65.1588 31.615 65.3165 31.7893C65.4826 31.9553 65.6984 32.0923 65.9641 32.2002C66.238 32.3082 66.5452 32.3995 66.8855 32.4742C67.2259 32.5406 67.5704 32.6153 67.919 32.6983C68.276 32.7813 68.6247 32.881 68.965 32.9972C69.3054 33.1051 69.6084 33.2545 69.874 33.4455C70.148 33.6364 70.3638 33.8771 70.5215 34.1677C70.6876 34.4582 70.7706 34.8235 70.7706 35.2635C70.7706 35.7367 70.6627 36.1434 70.4468 36.4838C70.2393 36.8158 69.9695 37.0898 69.6374 37.3056C69.3054 37.5132 68.9318 37.6626 68.5167 37.7539C68.11 37.8535 67.7032 37.9033 67.2964 37.9033C66.7983 37.9033 66.3252 37.8411 65.8769 37.7166C65.4369 37.592 65.0467 37.4052 64.7064 37.1562C64.3743 36.8989 64.1087 36.5751 63.9094 36.1849C63.7185 35.7865 63.623 35.3174 63.623 34.7778H64.7437C64.7437 35.1514 64.8143 35.4752 64.9554 35.7491C65.1049 36.0148 65.2958 36.2347 65.5282 36.4091C65.769 36.5834 66.0471 36.7121 66.3625 36.7951C66.678 36.8781 67.0017 36.9196 67.3338 36.9196C67.5994 36.9196 67.8651 36.8947 68.1307 36.8449C68.4047 36.7951 68.6496 36.7121 68.8654 36.5959C69.0812 36.4713 69.2556 36.3053 69.3884 36.0978C69.5212 35.8902 69.5876 35.6246 69.5876 35.3008C69.5876 34.9937 69.5046 34.7446 69.3386 34.5537C69.1809 34.3628 68.965 34.2092 68.6911 34.093C68.4254 33.9684 68.1224 33.8688 67.7821 33.7941C67.4417 33.7194 67.0931 33.6447 66.7361 33.57C66.3874 33.487 66.0429 33.3956 65.7026 33.296C65.3622 33.1881 65.055 33.0511 64.7811 32.8851C64.5155 32.7108 64.2996 32.4908 64.1336 32.2251C63.9759 31.9512 63.897 31.6108 63.897 31.2041C63.897 30.7558 63.9883 30.3698 64.1709 30.046C64.3536 29.714 64.5943 29.4442 64.8932 29.2366C65.2003 29.0208 65.5448 28.8631 65.9267 28.7634C66.3169 28.6555 66.7153 28.6016 67.1221 28.6016C67.5787 28.6016 68.0021 28.6555 68.3922 28.7634C68.7824 28.8714 69.1228 29.0415 69.4133 29.274C69.7122 29.5064 69.9446 29.8011 70.1106 30.1581C70.285 30.5067 70.3804 30.926 70.397 31.4158H69.2763Z" fill="#A3A2A3"></path> </svg> 